<svg xmlns="http://www.w3.org/2000/svg" viewBox="0 0 100 100">
  <rect x="0" y="0" width="100" height="100" rx="22" fill="oklch(0.2 0.09 255)"></rect>
  <g fill="oklch(0.6 0.15 70)">
    <circle cx="50" cy="50" r="30"></circle>
    <polygon points="46,9 54,9 56,25 44,25"></polygon>
    <polygon points="46,9 54,9 56,25 44,25" transform="rotate(30 50 50)"></polygon>
    <polygon points="46,9 54,9 56,25 44,25" transform="rotate(60 50 50)"></polygon>
    <polygon points="46,9 54,9 56,25 44,25" transform="rotate(90 50 50)"></polygon>
    <polygon points="46,9 54,9 56,25 44,25" transform="rotate(120 50 50)"></polygon>
    <polygon points="46,9 54,9 56,25 44,25" transform="rotate(150 50 50)"></polygon>
    <polygon points="46,9 54,9 56,25 44,25" transform="rotate(180 50 50)"></polygon>
    <polygon points="46,9 54,9 56,25 44,25" transform="rotate(210 50 50)"></polygon>
    <polygon points="46,9 54,9 56,25 44,25" transform="rotate(240 50 50)"></polygon>
    <polygon points="46,9 54,9 56,25 44,25" transform="rotate(270 50 50)"></polygon>
    <polygon points="46,9 54,9 56,25 44,25" transform="rotate(300 50 50)"></polygon>
    <polygon points="46,9 54,9 56,25 44,25" transform="rotate(330 50 50)"></polygon>
  </g>
  <g stroke="oklch(0.2 0.09 255)" fill="oklch(0.2 0.09 255)" stroke-linecap="round" stroke-linejoin="round">
    <path d="M25 50 H38" stroke-width="3"></path>
    <path d="M38 41 L38 59 L56 50 Z"></path>
    <path d="M56 41 V59" stroke-width="3"></path>
    <path d="M56 50 H75" stroke-width="3"></path>
  </g>
</svg>